# xmcd CD database file
#
# Track frame offsets:
#	150
#	25219
#	51582
#	73220
#	104755
#	130081
#	166340
#	186279
#
# Disc length: 2706 seconds
#
# Revision: 0
# Processed by: cddbd v1.5.2PL0 Copyright (c) Steve Scherf et al.
# Submitted via: CDex 1.51
#
DISCID=780a9008
DTITLE=Tryard - It was silly of me
DYEAR=1986
DGENRE=Jazz
TTITLE0=You'd be so nice to come home to
TTITLE1=A sweet fish
TTITLE2=Night in tunisia
TTITLE3=When I fallin love
TTITLE4=Stella by star light
TTITLE5=My foolish heart
TTITLE6=Straight no chaser
TTITLE7=It was silly of me
EXTD=YEAR: 1986
EXTT0=
EXTT1=
EXTT2=
EXTT3=
EXTT4=
EXTT5=
EXTT6=
EXTT7=
PLAYORDER=
